<svg width="24" height="24" viewBox="0 0 24 24" fill="none" xmlns="http://www.w3.org/2000/svg">
<path d="M10 2L8.41421 3.58579C7.63317 4.36683 7.63316 5.63316 8.41421 6.41421L10 8" stroke="#73655D" stroke-width="2" stroke-linecap="round"/>
<path d="M14 2L15.5858 3.58579C16.3668 4.36683 16.3668 5.63316 15.5858 6.41421L14 8" stroke="#73655D" stroke-width="2" stroke-linecap="round"/>
<path d="M18.7071 12.2929C18.5196 12.1054 18.2652 12 18 12H6C5.73478 12 5.48043 12.1054 5.29289 12.2929C5.10536 12.4804 5 12.7348 5 13V17C5 18.0609 5.42143 19.0783 6.17157 19.8284C6.92172 20.5786 7.93913 21 9 21H15C16.0609 21 17.0783 20.5786 17.8284 19.8284C18.5786 19.0783 19 18.0609 19 17V13C19 12.7348 18.8946 12.4804 18.7071 12.2929Z" fill="#BFBB7E" stroke="#73655D" stroke-width="2" stroke-linecap="round" stroke-linejoin="round"/>
</svg>
